Coordinates
version=1
nRows=13
nColumns=40
inDegrees=yes

Units are S.I. units (second, meters, Newtons, ...)
Angles are in degrees.

endheader
time	pelvis_tilt	pelvis_list	pelvis_rotation	pelvis_tx	pelvis_ty	pelvis_tz	hip_flexion_r	hip_adduction_r	hip_rotation_r	knee_angle_r	knee_angle_r_beta	ankle_angle_r	subtalar_angle_r	mtp_angle_r	hip_flexion_l	hip_adduction_l	hip_rotation_l	knee_angle_l	knee_angle_l_beta	ankle_angle_l	subtalar_angle_l	mtp_angle_l	lumbar_extension	lumbar_bending	lumbar_rotation	arm_flex_r	arm_add_r	arm_rot_r	elbow_flex_r	pro_sup_r	wrist_flex_r	wrist_dev_r	arm_flex_l	arm_add_l	arm_rot_l	elbow_flex_l	pro_sup_l	wrist_flex_l	wrist_dev_l
      2.19000000	      1.12793289	      2.67293366	     -3.16560559	      0.48012812	      0.89917752	     -1.65222886	     -5.10621256	     -5.30558919	     -9.12556564	    -39.64511312	     -0.69193776	     -6.62767178	     -7.69868355	      6.49571279	     14.57979953	     -3.87347681	     12.82592892	    -15.76987901	     -0.27523631	      1.19449165	      4.71145899	     -0.91164789	     -8.26891347	     -2.04536953	      2.26317635	     15.45415615	    -10.10725668	     11.44344871	     25.98308500	     89.95437384	      0.00000000	      0.00000000	     -4.10910866	      8.16500045	    -21.56169822	     10.24263896	     89.95437384	      0.00000000	      0.00000000
      2.20000000	      0.86871987	      2.78848921	     -3.09380134	      0.48978426	      0.89976972	     -1.65408922	     -3.56097556	     -5.57826558	     -8.66934400	    -42.06878716	     -0.73423885	     -9.93882732	     -9.08182529	      7.12472332	     13.98837479	     -4.19572318	     13.20208093	    -15.34798337	     -0.26787284	      1.42112556	      4.40045767	     -0.99097692	     -7.94723144	     -2.06082226	      1.96760262	     15.06209522	     -9.98019315	     11.72808101	     25.63588909	     89.95437384	      0.00000000	      0.00000000	     -3.80301434	      8.15109250	    -21.52781757	     10.58688879	     89.95437384	      0.00000000	      0.00000000
      2.21000000	      0.42808742	      2.55358561	     -2.99793869	      0.49891118	      0.89981821	     -1.65549785	     -1.72165002	     -5.11805378	     -7.66049723	    -44.57021097	     -0.77789693	    -11.74137945	    -11.48039491	      8.55827718	     13.89776290	     -3.96903550	     13.80385590	    -15.55404041	     -0.27146922	      1.77760684	      3.65221869	     -1.19952844	     -7.51403215	     -1.70859284	      1.74511782	     14.63395009	     -9.94754574	     12.16528244	     25.46726677	     89.95437384	      0.00000000	      0.00000000	     -3.44880970	      8.18166851	    -21.63490958	     11.08760664	     89.95437384	      0.00000000	      0.00000000
      2.22000000	      0.45572604	      2.60371785	     -2.95356619	      0.50857092	      0.90030714	     -1.65705854	     -0.43658480	     -5.23663201	     -7.14811875	    -46.95127433	     -0.81945433	    -11.78567410	    -12.05373647	      8.65438507	     13.00486772	     -4.19082308	     14.10196316	    -15.21075612	     -0.26547778	      2.26867085	      2.97928664	     -1.35524222	     -7.52735824	     -1.67833568	      1.48436238	     14.28609800	     -9.81429529	     12.38234506	     25.10270157	     89.95437384	      0.00000000	      0.00000000	     -3.06816015	      8.26477963	    -21.61168980	     11.68049428	     89.95437384	      0.00000000	      0.00000000
      2.23000000	      0.64728849	      2.57729746	     -2.92176939	      0.51799116	      0.90075266	     -1.65848954	      0.72602822	     -5.34879242	     -7.02591044	    -49.24721273	     -0.85952601	    -11.18371548	    -12.66036589	      8.57719129	     12.05621894	     -4.29096826	     14.35929438	    -15.12551143	     -0.26398998	      2.68936071	      2.48042600	     -1.49812921	     -7.75839377	     -1.59670431	      1.25709123	     13.98806749	     -9.70469181	     12.60942627	     24.71089825	     89.95437384	      0.00000000	      0.00000000	     -2.57709900	      8.33342992	    -21.57873393	     12.17351741	     89.95437384	      0.00000000	      0.00000000
      2.24000000	      0.70144376	      2.96060219	     -3.13024401	      0.52720895	      0.90079203	     -1.65970523	      2.26925086	     -5.84642453	     -6.50510621	    -51.66773456	     -0.90177209	    -10.17418555	    -13.80251725	      8.62589627	     11.22177774	     -4.77029642	     14.99802548	    -14.90366502	     -0.26011803	      3.26930629	      1.70786301	     -1.72512401	     -7.80950529	     -1.95790831	      1.13350599	     13.75032269	     -9.49615229	     12.99303638	     24.22165514	     89.95437384	      0.00000000	      0.00000000	     -2.13971353	      8.52071249	    -21.53944418	     12.83738056	     89.95437384	      0.00000000	      0.00000000
      2.25000000	      0.80420505	      3.21048791	     -3.40633108	      0.53628944	      0.90084638	     -1.66066125	      3.80475249	     -6.23138548	     -6.12549679	    -53.88711134	     -0.94050752	     -9.36836941	    -14.67270980	      9.15549278	     10.47086050	     -4.98644019	     15.95589678	    -14.96351565	     -0.26116262	      3.43259695	      0.56229797	     -1.96653190	     -7.91673880	     -2.18747109	      1.18022010	     13.45856599	     -9.38351964	     13.43704369	     23.78862319	     89.95437384	      0.00000000	      0.00000000	     -1.60386945	      8.71062597	    -21.76854341	     13.51137350	     89.95437384	      0.00000000	      0.00000000
      2.26000000	      1.20129460	      3.23708173	     -3.45506952	      0.54543701	      0.90148876	     -1.66168198	      4.81593634	     -6.34770629	     -6.03068539	    -55.58401268	     -0.97012403	     -8.43426126	    -15.31199360	      9.17682617	      9.29053858	     -5.15419195	     16.04075040	    -14.84163922	     -0.25903547	      4.12250189	      0.02778585	     -2.13946541	     -8.39180741	     -2.17695938	      1.00561805	     13.27852821	     -9.17315708	     13.56456135	     23.11932696	     89.95437384	      0.00000000	      0.00000000	     -0.85193461	      8.85507029	    -21.25306287	     14.00467275	     89.95437384	      0.00000000	      0.00000000
      2.27000000	      1.60145336	      3.29364288	     -3.53468361	      0.55455561	      0.90210745	     -1.66258332	      5.84381572	     -6.47315242	     -5.89845668	    -57.09481171	     -0.99649245	     -7.41446370	    -15.80233423	      9.19134391	      8.12926374	     -5.35733464	     16.09488665	    -14.73510744	     -0.25717614	      4.59072587	     -0.35604983	     -2.25860598	     -8.86650127	     -2.20863045	      0.82027318	     13.06778271	     -8.95987703	     13.69810538	     22.54928265	     89.95437384	      0.00000000	      0.00000000	     -0.16482885	      8.96083818	    -20.86483191	     14.50532646	     89.95437384	      0.00000000	      0.00000000
      2.28000000	      1.93305589	      3.09945412	     -3.41947804	      0.56355425	      0.90270861	     -1.66353916	      6.87840485	     -6.32108483	     -6.03367697	    -58.27070069	     -1.01701558	     -6.96188761	    -15.76608242	      9.04473700	      7.16566546	     -5.27560829	     16.11416154	    -14.85222658	     -0.25922025	      4.82594437	     -0.40505656	     -2.27772901	     -9.29648406	     -1.93638968	      0.49656692	     12.72202911	     -8.81314966	     13.75786377	     22.19682715	     89.95437384	      0.00000000	      0.00000000	      0.58063457	      9.05547326	    -20.76157925	     14.93213926	     89.95437384	      0.00000000	      0.00000000
      2.29000000	      2.31209895	      3.08861766	     -3.59597965	      0.57273030	      0.90335323	     -1.66421437	      7.85821955	     -6.15133486	     -5.58321497	    -59.23717438	     -1.03388373	     -5.39241099	    -16.25408675	      9.04510499	      5.97765964	     -5.48014863	     15.90093140	    -14.63460082	     -0.25542197	      5.66278029	     -0.61171268	     -2.43321367	     -9.68445576	     -1.89423584	      0.38127243	     12.63592684	     -8.54011751	     13.91206576	     21.18998373	     89.95437384	      0.00000000	      0.00000000	      1.28358718	      9.17271958	    -20.52563069	     15.47725484	     89.95437384	      0.00000000	      0.00000000
      2.30000000	      2.59625750	      2.88362535	     -3.58972544	      0.58177592	      0.90391311	     -1.66509644	      8.90331999	     -5.82592336	     -5.46389303	    -59.92300630	     -1.04585376	     -4.43346085	    -16.31166377	      9.00738040	      4.96737908	     -5.44929127	     15.72744780	    -14.54525621	     -0.25386261	      6.12993200	     -0.55951994	     -2.49671020	     -9.99563388	     -1.59995645	      0.16259553	     12.34165336	     -8.39226240	     14.13074499	     20.52826730	     89.95437384	      0.00000000	      0.00000000	      2.02777281	      9.25782138	    -20.41502506	     15.95433481	     89.95437384	      0.00000000	      0.00000000
      2.31000000	      2.78743009	      2.65935590	     -3.46165157	      0.59061869	      0.90441365	     -1.66621598	     10.03906272	     -5.50127121	     -5.49532603	    -60.38062898	     -1.05384078	     -3.98145372	    -16.15611238	      8.89812432	      4.10419189	     -5.34733753	     15.65581016	    -14.54850771	     -0.25391936	      6.44807326	     -0.53047599	     -2.51814796	    -10.20245574	     -1.24014178	     -0.25117913	     12.00020384	     -8.27721541	     14.19493246	     20.13708163	     89.95437384	      0.00000000	      0.00000000	      2.78807059	      9.33535515	    -20.34141546	     16.39020136	     89.95437384	      0.00000000	      0.00000000
